HIERARCHY
ROOT Hips
{
 OFFSET 0.000000 0.000000 0.000000
 CHANNELS 6 Xposition Yposition Zposition Yrotation Xrotation Zrotation
 JOINT Chest
 {
  OFFSET 0.000000 9.585900 0.002600
  CHANNELS 3 Yrotation Xrotation Zrotation
  JOINT Chest2
  {
   OFFSET 0.000000 9.601200 -0.005300
   CHANNELS 3 Yrotation Xrotation Zrotation
   JOINT Chest3
   {
    OFFSET 0.000000 9.561800 0.000000
    CHANNELS 3 Yrotation Xrotation Zrotation
    JOINT Chest4
    {
     OFFSET 0.000000 9.552100 0.000000
     CHANNELS 3 Yrotation Xrotation Zrotation
     JOINT Neck
     {
      OFFSET 0.000000 14.453000 0.000000
      CHANNELS 3 Yrotation Xrotation Zrotation
      JOINT Head
      {
       OFFSET 0.000000 8.936500 -0.011300
       CHANNELS 3 Yrotation Xrotation Zrotation
       End Site
       {
        OFFSET 0.000000 17.073600 -0.006000
       }
      }
     }
     JOINT RightCollar
     {
      OFFSET -2.921100 9.558500 0.000000
      CHANNELS 3 Yrotation Xrotation Zrotation
      JOINT RightShoulder
      {
       OFFSET -13.519700 0.000000 0.000000
       CHANNELS 3 Yrotation Xrotation Zrotation
       JOINT RightElbow
       {
        OFFSET 0.000000 -29.696600 0.000000
        CHANNELS 3 Yrotation Xrotation Zrotation
        JOINT RightWrist
        {
         OFFSET 0.000000 -24.004700 0.000000
         CHANNELS 3 Yrotation Xrotation Zrotation
         End Site
         {
          OFFSET 0.000000 -17.728500 0.000000
         }
        }
       }
      }
     }
     JOINT LeftCollar
     {
      OFFSET 2.921100 9.558500 0.000000
      CHANNELS 3 Yrotation Xrotation Zrotation
      JOINT LeftShoulder
      {
       OFFSET 13.519700 0.000000 0.000000
       CHANNELS 3 Yrotation Xrotation Zrotation
       JOINT LeftElbow
       {
        OFFSET 0.000000 -29.696600 0.000000
        CHANNELS 3 Yrotation Xrotation Zrotation
        JOINT LeftWrist
        {
         OFFSET 0.000000 -24.004700 0.000000
         CHANNELS 3 Yrotation Xrotation Zrotation
         End Site
         {
          OFFSET 0.000000 -17.728500 0.000000
         }
        }
       }
      }
     }
    }
   }
  }
 }
 JOINT RightHip
 {
  OFFSET -7.771700 -0.012900 -0.001300
  CHANNELS 3 Yrotation Xrotation Zrotation
  JOINT RightKnee
  {
   OFFSET 0.000000 -40.869800 0.001200
   CHANNELS 3 Yrotation Xrotation Zrotation
   JOINT RightAnkle
   {
    OFFSET 0.000000 -39.717900 0.002100
    CHANNELS 3 Yrotation Xrotation Zrotation
    JOINT RightToe
    {
     OFFSET 0.000000 -4.965400 11.033500
     CHANNELS 3 Yrotation Xrotation Zrotation
     End Site
     {
      OFFSET 0.000000 -1.423100 5.872300
     }
    }
   }
  }
 }
 JOINT LeftHip
 {
  OFFSET 7.771700 -0.012900 -0.001300
  CHANNELS 3 Yrotation Xrotation Zrotation
  JOINT LeftKnee
  {
   OFFSET 0.000000 -40.869800 0.001200
   CHANNELS 3 Yrotation Xrotation Zrotation
   JOINT LeftAnkle
   {
    OFFSET 0.000000 -39.717900 0.002100
    CHANNELS 3 Yrotation Xrotation Zrotation
    JOINT LeftToe
    {
     OFFSET 0.000000 -4.965400 11.033500
     CHANNELS 3 Yrotation Xrotation Zrotation
     End Site
     {
      OFFSET 0.000000 -1.423100 5.872300
     }
    }
   }
  }
 }
}
MOTION
Frames: 12
Frame Time: 0.008333
0.000000 85.388000 0.000000 0.000000 -5.767877 0.000000 0.000000 11.653817 0.000000 0.000000 -5.885947 0.000000 0.000000 -0.000000 0.000000 0.000000 -0.000000 0.000000 0.000000 12.528835 0.000000 0.000000 0.711642 0.000000 0.000000 -0.000000 0.000000 0.000000 0.000000 -90.000000 0.000000 -2.309062 0.000000 0.000000 2.309062 0.000000 0.000000 -0.000000 0.000000 0.000000 -0.000000 90.000000 0.000000 -2.309062 0.000000 0.000000 2.309062 0.000000 0.000000 8.520406 0.000000 0.000000 1.905762 0.000000 -0.000000 -4.658285 0.000000 0.000000 -0.000000 0.000000 0.000000 8.520406 0.000000 0.000000 1.905762 0.000000 -0.000000 -4.658285 0.000000 0.000000 -0.000000 0.000000
-38.733165 62.035863 13.155907 177.449709 -52.612910 -0.833028 4.293033 27.054566 0.567640 0.662784 4.650662 0.069086 1.027171 7.386013 0.135130 3.247565 21.949816 0.834529 4.181066 16.982317 5.642008 5.808258 -4.435691 9.038402 1.031019 3.778081 -1.713970 -1.454712 -14.702562 -53.002747 -69.570580 -74.294988 86.727779 13.504317 11.756372 7.619536 -8.752662 1.578442 5.626492 -14.548687 -17.666526 57.637935 35.342200 -56.275331 -46.240866 15.571031 -4.543527 20.310166 3.314400 -14.206740 -6.205183 -1.856660 60.861208 -5.814518 1.669562 -6.215431 10.920235 0.261545 -0.601318 0.099015 -3.542403 -11.545020 2.021312 24.495303 76.679762 24.887238 0.505041 -11.875880 -3.441685 0.244572 0.641800 0.111256
-38.730682 62.035795 13.153900 177.450791 -52.607924 -0.841074 4.284551 27.059851 0.572242 0.660901 4.650077 0.066410 1.035233 7.378876 0.134302 3.229761 21.959922 0.833451 4.183486 17.014029 5.622670 5.814160 -4.369216 9.001912 1.047857 3.770520 -1.712571 -1.548448 -14.773310 -52.884663 -69.860785 -74.312653 87.024965 13.427883 11.690256 7.381174 -8.749473 1.586994 5.601280 -14.446531 -17.741915 57.521946 35.579307 -56.463688 -46.286332 15.552389 -4.474320 20.180135 3.310050 -14.212745 -6.202847 -1.866035 60.862783 -5.811567 1.674357 -6.211803 10.911568 0.266559 -0.598268 0.105956 -3.561040 -11.550846 2.035783 24.506076 76.687762 24.880119 0.511442 -11.875612 -3.439720 0.238056 0.636768 0.109133
-38.728935 62.035266 13.151497 177.444639 -52.599369 -0.838348 4.279616 27.062888 0.573514 0.647305 4.661250 0.068009 1.040916 7.367965 0.127527 3.225117 21.960040 0.833401 4.185767 17.042789 5.602924 5.823615 -4.305675 8.963857 1.062144 3.762415 -1.712477 -1.650323 -14.838795 -52.755094 -70.170834 -74.311278 87.336954 13.334252 11.610568 7.104487 -8.775000 1.603017 5.553563 -14.313994 -17.821126 57.419163 35.848276 -56.658570 -46.377425 15.545074 -4.434070 20.078271 3.306685 -14.223218 -6.204573 -1.858167 60.866336 -5.801504 1.677625 -6.212044 10.909081 0.265636 -0.598272 0.104205 -3.565812 -11.559570 2.040530 24.504362 76.693557 24.875134 0.510657 -11.875749 -3.440722 0.241420 0.633184 0.106634
-38.728032 62.033967 13.148949 177.446007 -52.584862 -0.836427 4.267411 27.060859 0.570136 0.648574 4.657920 0.066268 1.024490 7.381761 0.134378 3.225345 21.949186 0.824573 4.187686 17.067568 5.582183 5.833977 -4.190714 8.896780 1.074334 3.757857 -1.708061 -1.751443 -14.904073 -52.624011 -70.498947 -74.297455 87.651196 13.233039 11.520909 6.804944 -8.777273 1.610317 5.524600 -14.194724 -17.894178 57.285602 36.152665 -56.866836 -46.500422 15.542589 -4.419802 20.030604 3.293021 -14.241049 -6.218554 -1.840377 60.872857 -5.779709 1.688053 -6.215384 10.908077 0.261677 -0.597400 0.095549 -3.570377 -11.575481 2.039396 24.478226 76.703794 24.848684 0.518848 -11.880714 -3.441524 0.239752 0.634738 0.106175
-38.726600 62.034312 13.144535 177.452184 -52.582879 -0.841226 4.258492 27.065114 0.570602 0.642780 4.663227 0.069804 1.024460 7.378603 0.132343 3.216692 21.950095 0.826694 4.189998 17.087570 5.559954 5.846447 -4.133798 8.845498 1.083945 3.755279 -1.706278 -1.852434 -14.967269 -52.483248 -70.858684 -74.281143 87.981186 13.131016 11.430166 6.487443 -8.777577 1.624224 5.494564 -14.073791 -17.957859 57.141033 36.496257 -57.099622 -46.641671 15.533006 -4.423949 20.046282 3.285757 -14.244170 -6.224439 -1.855362 60.880158 -5.783962 1.694719 -6.216289 10.904955 0.263156 -0.597940 0.095209 -3.578009 -11.577991 2.040914 24.466728 76.713185 24.835973 0.525817 -11.881501 -3.442742 0.238213 0.630459 0.105443
-38.723485 62.033676 13.140436 177.445867 -52.573976 -0.846590 4.261158 27.061902 0.582142 0.637262 4.669737 0.075136 1.030531 7.368467 0.124374 3.208618 21.952178 0.832186 4.191373 17.101550 5.540292 5.858273 -4.106893 8.801665 1.086958 3.765352 -1.697309 -1.955498 -15.038311 -52.334688 -71.265767 -74.275746 88.348272 13.029349 11.342807 6.145065 -8.779686 1.647930 5.468450 -13.951588 -18.006372 56.982438 36.870663 -57.368046 -46.779440 15.509721 -4.442642 20.112752 3.282443 -14.255252 -6.220690 -1.858665 60.885655 -5.778280 1.704385 -6.219303 10.906312 0.259651 -0.595283 0.090575 -3.584124 -11.587738 2.054032 24.502749 76.723758 24.870252 0.522199 -11.888490 -3.449735 0.240923 0.626776 0.106631
-38.721998 62.030744 13.137643 177.441814 -52.547819 -0.844772 4.254937 27.047675 0.584630 0.639487 4.666599 0.075363 1.024282 7.367575 0.125249 3.205769 21.945508 0.833712 4.191280 17.109864 5.515710 5.866075 -4.091915 8.770396 1.088692 3.780306 -1.689338 -2.066829 -15.113128 -52.176478 -71.728480 -74.287249 88.764076 12.929276 11.257436 5.775278 -8.780955 1.679883 5.441201 -13.832449 -18.040770 56.808194 37.254576 -57.679034 -46.888607 15.470725 -4.471301 20.214920 3.263065 -14.288266 -6.228068 -1.830507 60.894298 -5.755064 1.712529 -6.220420 10.905855 0.240212 -0.589606 0.090765 -3.588694 -11.615670 2.058619 24.532663 76.731142 24.898381 0.516024 -11.898090 -3.452408 0.241354 0.631027 0.106254
-38.721155 62.028191 13.134277 177.439757 -52.524770 -0.840975 4.252662 27.035068 0.585845 0.634150 4.665720 0.075965 1.017345 7.367063 0.134915 3.199323 21.937120 0.829546 4.190126 17.111436 5.485434 5.871360 -4.085605 8.765185 1.091005 3.799481 -1.682409 -2.185709 -15.198024 -52.007216 -72.251217 -74.316373 89.236232 12.836711 11.168211 5.376635 -8.781681 1.720206 5.411753 -13.714063 -18.067840 56.620832 37.638605 -58.040295 -46.963217 15.422177 -4.497651 20.343356 3.258945 -14.315171 -6.235347 -1.832471 60.901980 -5.751597 1.707291 -6.222072 10.904016 0.249132 -0.587734 0.088490 -3.595950 -11.639084 2.058341 24.556668 76.734008 24.916747 0.519238 -11.904656 -3.453566 0.238272 0.639075 0.105716
-38.719106 62.027188 13.129722 177.440763 -52.513106 -0.847028 4.249935 27.035389 0.595082 0.633272 4.658568 0.072856 1.010994 7.366282 0.139867 3.194677 21.931884 0.832219 4.189033 17.110274 5.460265 5.876555 -4.099849 8.669068 1.094877 3.820409 -1.662751 -2.313635 -15.289873 -51.826928 -72.837770 -74.367029 89.767001 12.754770 11.069955 4.944745 -8.784070 1.773092 5.384625 -13.592090 -18.087558 56.423339 38.032061 -58.463527 -47.016653 15.375055 -4.516031 20.496392 3.255441 -14.329452 -6.233378 -1.842660 60.909646 -5.754073 1.708256 -6.220388 10.901190 0.254225 -0.591397 0.088127 -3.610130 -11.652275 2.065130 24.590155 76.741958 24.944585 0.520835 -11.904141 -3.457977 0.237988 0.633338 0.104362
-38.716433 62.026392 13.125104 177.433857 -52.502524 -0.851184 4.246103 27.038371 0.604412 0.638021 4.649966 0.070520 1.009293 7.362360 0.143971 3.191493 21.927523 0.833277 4.189251 17.112659 5.444694 5.873610 -4.138876 8.594032 1.097382 3.845352 -1.633604 -2.457259 -15.386598 -51.626785 -73.506654 -74.439613 90.372155 12.675530 10.959071 4.483600 -8.787846 1.837341 5.360448 -13.467710 -18.095422 56.212592 38.431706 -58.961132 -47.048168 15.333984 -4.531104 20.683591 3.252213 -14.344583 -6.229615 -1.844707 60.918286 -5.750559 1.723698 -6.216791 10.901570 0.250736 -0.596065 0.086536 -3.611538 -11.662836 2.073179 24.625029 76.748451 24.988694 0.510340 -11.908061 -3.469782 0.249044 0.629851 0.106487
-38.716447 62.024398 13.121404 177.429695 -52.482189 -0.842482 4.237308 27.026816 0.600458 0.636839 4.646470 0.071093 1.013417 7.358701 0.139968 3.189870 21.925167 0.831473 4.182924 17.096049 5.429201 5.869472 -4.168066 8.540629 1.087705 3.879422 -1.589273 -2.609428 -15.495783 -51.409813 -74.262722 -74.527708 91.060491 12.584440 10.830911 3.993349 -8.794136 1.905834 5.341832 -13.340102 -18.092333 55.985320 38.817187 -59.542565 -47.040609 15.301014 -4.541270 20.911328 3.244702 -14.368361 -6.243826 -1.826407 60.924918 -5.733762 1.735743 -6.219357 10.905564 0.242625 -0.592585 0.081982 -3.612015 -11.683676 2.068913 24.635201 76.751005 24.998246 0.509079 -11.909777 -3.472675 0.249647 0.631767 0.108035
